<?xml version="1.0" encoding="utf-8"?>
<svg version="1.1" x="0px" y="0px" viewBox="0 0 1300 1200.87" style="enable-background:new 0 0 1300 1200.87;"
  xmlns="http://www.w3.org/2000/svg">
  <style type="text/css">
	.st0{fill:#FB8500;}
	.st1{fill:#ffd2a3;}
	.st2{fill:#F44E4E;}
	.st3{fill:#FFFFFF;}
	.st4{fill:#D4A79A;}
	.st5{fill:#EAC2AB;}
	.st6{fill:#4B369D;}
	.st7{fill:#F3AA02;}
	.st8{fill:#FDC510;}
	.st9{fill:#5A54FF;}
	.st10{fill:#D7384E;}
  </style>
  <g id="UI" style="" transform="matrix(1.05171, 0, 0, 1.05171, -433.096771, -65.142326)">
    <g id="Phone">
      <path class="st0" d="M1301.18,877.43h-284.67c-24.73,0-44.96-20.23-44.96-44.96V164.15c0-24.73,20.23-44.96,44.96-44.96h284.67 c24.73,0,44.96,20.23,44.96,44.96v668.32C1346.14,857.19,1325.91,877.43,1301.18,877.43z"/>
      <path class="st1" d="M1277.41,806.69h-237.13c-24.73,0-44.96-20.23-44.96-44.96v-572.1c0-24.73,20.23-44.96,44.96-44.96h237.13 c24.73,0,44.96,20.23,44.96,44.96v572.1C1322.37,786.45,1302.14,806.69,1277.41,806.69z"/>
      <path class="st1" d="M1194.13,136.52h-70.57c-1.72,0-3.12-1.41-3.12-3.12l0,0c0-1.72,1.41-3.12,3.12-3.12h70.57 c1.72,0,3.12,1.41,3.12,3.12l0,0C1197.25,135.12,1195.84,136.52,1194.13,136.52z"/>
      <circle class="st1" cx="1158.84" cy="839.72" r="19.43"/>
      <path class="st2" d="M1248.02,727.69h-178.36c-15.89,0-28.89-13-28.89-28.89v-11.22c0-15.89,13-28.89,28.89-28.89h178.36 c15.89,0,28.89,13,28.89,28.89v11.22C1276.92,714.69,1263.91,727.69,1248.02,727.69z"/>
      <path class="st0" d="M1160.82,327c-14.99-3.75-18.74-48.71-33.72-48.71c-32.92,2.99-44.34,46.61-62.87,79.33 c2.42,13.48,14.26,23.81,28.41,23.81h131.92c15.89,0,28.89-13,28.89-28.89v-94.59c-4.58,0.36-9.26,2.01-13.95,5.36 C1213.28,285.78,1194.55,334.49,1160.82,327z"/>
      <path class="st3" d="M1224.8,219.03h-131.92c-15.89,0-28.89,13-28.89,28.89v104.61c0,1.74,0.18,3.43,0.48,5.09 c18.53-32.72,29.95-76.34,62.87-79.33c14.99,0,18.74,44.96,33.72,48.71c33.72,7.49,52.46-41.22,78.69-63.7 c4.68-3.35,9.37-4.99,13.95-5.36v-10.02C1253.7,232.03,1240.69,219.03,1224.8,219.03z"/>
      <path class="st0" d="M1244.4,442.4h-171.11c-4.59,0-8.35-3.76-8.35-8.35v0c0-4.59,3.76-8.35,8.35-8.35h171.11 c4.59,0,8.35,3.76,8.35,8.35v0C1252.75,438.64,1248.99,442.4,1244.4,442.4z"/>
      <path class="st3" d="M1244.4,480.63h-171.11c-4.59,0-8.35-3.76-8.35-8.35v0c0-4.59,3.76-8.35,8.35-8.35h171.11 c4.59,0,8.35,3.76,8.35,8.35v0C1252.75,476.87,1248.99,480.63,1244.4,480.63z"/>
      <path class="st3" d="M1244.4,518.85h-171.11c-4.59,0-8.35-3.76-8.35-8.35v0c0-4.59,3.76-8.35,8.35-8.35h171.11 c4.59,0,8.35,3.76,8.35,8.35v0C1252.75,515.1,1248.99,518.85,1244.4,518.85z"/>
      <circle class="st0" cx="1177.58" cy="269.62" r="16.63"/>
      <g>
        <path class="st3" d="M1157.41,626.17L1157.41,626.17c-1.07-0.87-1.23-2.45-0.36-3.51l22.89-28.11c0.87-1.07,2.45-1.23,3.51-0.36 l0,0c1.07,0.87,1.23,2.45,0.36,3.51l-22.89,28.11C1160.05,626.88,1158.47,627.04,1157.41,626.17z"/>
        <path class="st3" d="M1160.28,626.17L1160.28,626.17c1.07-0.87,1.23-2.45,0.36-3.51l-22.89-28.11c-0.87-1.07-2.45-1.23-3.51-0.36 l0,0c-1.07,0.87-1.23,2.45-0.36,3.51l22.89,28.11C1157.63,626.88,1159.21,627.04,1160.28,626.17z"/>
      </g>
      <ellipse class="st1" cx="1158.84" cy="1038.24" rx="173.09" ry="25.53"/>
    </g>
    <g id="Button">
      <g>
        <path class="st1" d="M673.18,430.6H483.06c-16.28,0-29.6-13.32-29.6-29.6v0c0-16.28,13.32-29.6,29.6-29.6h190.13 c16.28,0,29.6,13.32,29.6,29.6v0C702.78,417.28,689.46,430.6,673.18,430.6z"/>
        <g>
          <path class="st3" d="M673.94,402.94L673.94,402.94c-0.52,0.64-1.48,0.74-2.12,0.22l-16.93-13.79c-0.64-0.52-0.74-1.48-0.22-2.12 l0,0c0.52-0.64,1.48-0.74,2.12-0.22l16.93,13.79C674.36,401.34,674.46,402.3,673.94,402.94z"/>
          <path class="st3" d="M673.94,401.21L673.94,401.21c-0.52-0.64-1.48-0.74-2.12-0.22l-16.93,13.79c-0.64,0.52-0.74,1.48-0.22,2.12 l0,0c0.52,0.64,1.48,0.74,2.12,0.22l16.93-13.79C674.36,402.8,674.46,401.85,673.94,401.21z"/>
        </g>
      </g>
      <g>
        <path class="st0" d="M600.39,496.47H473.25c-10.89,0-19.79-8.91-19.79-19.79v0c0-10.89,8.91-19.79,19.79-19.79l127.14,0 c10.89,0,19.79,8.91,19.79,19.79v0C620.19,487.56,611.28,496.47,600.39,496.47z"/>
        <g>
          <path class="st3" d="M600.9,477.97L600.9,477.97c-0.35,0.43-0.99,0.49-1.42,0.14l-11.32-9.22c-0.43-0.35-0.49-0.99-0.14-1.42 l0,0c0.35-0.43,0.99-0.49,1.42-0.14l11.32,9.22C601.18,476.9,601.25,477.54,600.9,477.97z"/>
          <path class="st3" d="M600.9,476.81L600.9,476.81c-0.35-0.43-0.99-0.49-1.42-0.14l-11.32,9.22c-0.43,0.35-0.49,0.99-0.14,1.42 l0,0c0.35,0.43,0.99,0.49,1.42,0.14l11.32-9.22C601.18,477.88,601.25,477.24,600.9,476.81z"/>
        </g>
      </g>
    </g>
  </g>
  <g id="Characters" style="" transform="matrix(1.05171, 0, 0, 1.05171, -433.096771, -65.142326)">
    <g id="Man">
      <path id="Arm_1_" class="st4" d="M770.85,486.29c0,0-22.76,30.08-24.13,51.93c-1.37,21.85,56.35,30.57,56.35,30.57L770.85,486.29z "/>
      <g id="Head">
        <path id="Neck" class="st4" d="M835.19,402.6l-2.44,45.42l-35.55,13.71c0,0,21.38-31.28,17.75-59.13 C811.34,374.75,835.19,402.6,835.19,402.6z"/>
        <path id="Face" class="st5" d="M866.96,309.67c0,0,7.74,10.26,0.19,41.71c-7.55,31.46-19.81,58.32-29.29,56.42 c-26.21-5.24-35.41-23.76-44.5-39.66c-11.14-19.5,10.98-67.06,10.98-67.06l20.9-11.28L866.96,309.67z"/>
        <path id="Hair" class="st6" d="M894.87,301.19c2.29-7.38-1.73-16.82-7.1-21.38c-2.07-1.76-4.68-2.88-7.29-2.62 c-1.96,0.19-3.88,1.14-5.83,0.82c-5.84-0.97-6.54-9.58-11.96-11.33c-4.04-1.3-7.92,2.36-12.04,3.33 c-3.11,0.73-6.33-0.11-9.46-0.76c-8.81-1.85-16.98-6.08-26.01-7.17c-7.62-0.92-15.57-0.06-22.46,3.64 c-7.2,3.86-12.36,10.96-15.11,19.16c-1.64,4.9-2.17,10.36-0.85,15.38c-1.08-4.13-8.51,0.31-9.72,1.93 c-4.73,6.38-5.53,20.21-3.02,27.63c1.99,5.88,5.26,11.08,7.08,17.04c2.16,7.11,3.06,15,7,21.3c4.51,7.23,13.47,10.91,21.18,8.91 c-2.38-6.54-4.74-13.23-5.18-20.25s-9.73-38.75,24.85-45.6c13.75-2.72,30.31,8.74,44.08,9.29c6.54,0.26,13.09-1.01,19.22-3.5 c4.74-1.92,9.35-8.99,11.96-14.16C894.48,302.32,894.7,301.77,894.87,301.19z" style="fill: rgb(44, 27, 24);"/>
        <path id="Ear" class="st5" d="M794.15,333.94c0,0-9.66-10.91-8.6,5.74s9.78,20.09,9.78,20.09L794.15,333.94z"/>
      </g>
      <g id="Leg_2_">
        <path id="Skin_1_" class="st4" d="M711.75,971.87l-20.94,54.98l-19.1-5.11l25.26-56.07 C696.96,965.67,707.79,966.96,711.75,971.87z"/>
        <path id="Shoe_1_" class="st7" d="M739.74,1078.12c-0.68,1.14-7.44,0.68-8.45,0.69c-10.43,0.15-26.46,0.91-35.43-5.12 c-8.74-5.88-14.36-15.98-22.08-23.06c-5.43-4.98-12.36-8-18.78-11.53c-7.09-3.9,7.33-36.24,15.93-31.01 c6.96,4.24,3.54,15.96,21.29,14.44c15.21-1.31,5.55,20.41,23.24,33.35C731.1,1067.32,747.2,1065.62,739.74,1078.12z"/>
        <path id="Leg_3_" class="st6" d="M750.39,775.57c-8.5,46.25-26.24,88.34-52.58,127.16c-12.85,18.93-26.6,37.18-39.91,55.79 c-18.98,26.54,45.35,32.75,61.19,37.54c10.36,3.13,25.77,3.93,25.08-4.06c-0.2-2.35-2.01-4.66-3.5-6.92 c-13.57-20.73-1.71-41.61,7.68-60.19c28.13-55.71,47.12-119.94,69.19-177.99c8.4-22.1,4.62-43.87,5.84-68.11 c0.75-14.84-24.98-80.21-53.09-64.1c-17.49,10.03-7.8,48.15-5.93,63.47c1.3,10.59,3.58,22.14,1.84,32.81 C762.64,732.83,754.41,753.72,750.39,775.57z"/>
      </g>
      <g id="Leg">
        <path id="Skin" class="st5" d="M818.9,990.37l13.01,59.19l-19.34,6.38l-9.91-62.57C802.67,993.38,812.73,988.38,818.9,990.37z"/>
        <path id="Shoe" class="st8" d="M911.12,1072.89c0,0-14.47,4.94-42.21,7c-27.74,2.06-58.7,3.09-64.32-1.03 c-5.63-4.12-9.25-39.11,0-39.11c9.25,0,12.84,13.38,29.15,1.44c13.97-10.23,25.13,9.06,49.45,14.2 C907.5,1060.54,917.35,1062.6,911.12,1072.89z"/>
        <path id="Leg_1_" class="st9" d="M869.27,1006.95c-0.93-2.17-3.37-3.79-5.49-5.48c-19.37-15.44-14.64-38.99-11.54-59.57 c7.35-48.82-0.52-98.03-3.46-146.86c-2.86-47.66,1.91-95.49,12.8-141.95c3.96-16.88,9.42-42.98-16.69-38.04 c-12.37,2.34-24.58,1.88-36.91-0.28c-6.49-1.14,0.13-3.25-6.49-1.14c-22.55,7.2-30.98,49.82-26.35,64.67 c9.22,29.57,12.22,57.95,13.72,89.26c2.12,44.4,9.51,88.85,4.24,132.91c-2.58,21.59-5.58,43.12-8.46,64.67 c-1.68,12.57-12.19,40.11-5.14,51.49c9.68,15.62,52.81,2.38,67.22,2.03C857.54,1018.38,872.42,1014.32,869.27,1006.95z"/>
      </g>
      <path id="Body_1_" class="st10" d="M850.07,532.53c-6.54-26.54,0.56-71.18-18.15-90.87c-1.92-2.02-3.95-4.01-6.49-5.16 c-23.51-10.59-37.69,8.71-47.8,25.44c-10.12,16.75-9.89,34.87-14.83,53.65c-5.62,21.35-4.49,43.55-4.89,65.59 c-0.25,13.42,1.39,26.75,0.63,40.19c-0.53,9.38-1.86,18.7-4,27.84c-1.42,6.08-9.37,18.15-7.05,24.34 c1.84,4.9,10.26,3.05,14.4,3.19c16.01,0.53,31.7-4.22,45.94-11.26c13.01-6.43,24.41-16.4,39.41-17.64 c7.45-0.62,30.91,2.44,27.54-11.11c-7.99-32.09-17.1-59.45-20.41-82.11C853.3,547.29,851.88,539.89,850.07,532.53z"/>
      <path id="Arm" class="st5" d="M882.75,554.74c0,0,27.45,30.37,31.92,26.06s86.56-92.02,90.67-101.57s13.94-37.17,12.91-42.74 c-1.03-5.57-3.64-4.97,7.24-6.94c10.88-1.97,31.56-2.44,29.88,1.78c-1.68,4.22-10.28,4.58-10.28,4.58s11.14,2.73,6.93,4.99 c-4.21,2.26-18.22,4.15-16.86,8.2c1.36,4.05,3.39,13.33,2.65,21.18s-3.77,11.4-12.87,17c-9.1,5.59-10.7,1.7-16,12.77 c-5.3,11.07-85.83,107.25-90.97,111.23c-5.14,3.98-6.48,8.37-17.9-2.15c-11.42-10.52-31.53-36.56-47.62-53.4 c-14.76-15.44-20.83-37.18-20.83-37.18l23.88-3.52C855.5,515.03,858.3,531.59,882.75,554.74z"/>
      <path id="Body" class="st2" d="M865.1,515.69c0,0-18.94-61.33-43.39-49.62c-24.45,11.71,9.92,77.21,9.92,77.21l39.74-19.75 L865.1,515.69z"/>
    </g>
  </g>
  <path style="fill: rgb(44, 27, 24); fill-rule: nonzero; paint-order: fill; stroke: rgb(44, 27, 24);" d="M 402.517 312.357 C 401.076 325.153 407.459 338.152 421.668 351.353 C 433.722 362.552 444.043 367.659 452.63 366.672 C 456.847 366.187 460.688 359.852 464.155 347.665 C 464.874 345.136 459.868 343.089 449.137 341.522 C 446.41 341.124 448.092 338.373 454.182 333.27 C 455.396 332.253 459.88 334.384 467.635 339.663 C 469.188 340.72 469.985 337.6 470.027 330.301 Q 470.077 321.621 402.517 312.357 Z"/>
</svg>