<?xml version="1.0" encoding="utf-8"?>
<!-- Generator: Adobe Illustrator 23.0.3, SVG Export Plug-In . SVG Version: 6.00 Build 0)  -->
<svg version="1.1"
	xmlns="http://www.w3.org/2000/svg"
	xmlns:xlink="http://www.w3.org/1999/xlink" x="0px" y="0px" viewBox="0 0 1700 1200.87" style="enable-background:new 0 0 1799.6 1200.87;" xml:space="preserve">
	<style type="text/css">
	.st0{fill:#E3E5FC;}
	.st1{fill:#FB8500;}
	.st2{fill:#4B369D;}
	.st3{fill:#F3AA02;}
	.st4{fill:#FFFFFF;}
	.st5{fill:#D4A79A;}
	.st6{fill:#EAC2AB;}
	.st7{fill:#FDC510;}
	.st8{fill:#5A54FF;}
	.st9{fill:#D7384E;}
	.st10{fill:#F44E4E;}
	</style>
	<g id="Background">
		<g id="Chair">
			<g>
				<path class="st0" d="M467.08,961.4c-5.1-5.08-2.63-40.77-1.83-46.5c3.2-22.96,6.4-45.93,9.6-68.89
				c6.49-46.58,12.98-93.15,19.46-139.73c0.74-5.32,1.48-10.65,2.23-15.97c1.54-8.86,10.33-15.6,19.52-14.98
				c9.2,0.61,15.46,8.36,13.92,17.22c-19.35,87.71-42.86,175.58-57.18,263.75c-0.19,1.19-0.41,2.43-1.22,3.46
				C469.65,962.16,468.19,962.5,467.08,961.4z"/>
				<path class="st0" d="M682.19,960.47c4.98-5.23,1.7-40.84,0.77-46.54c-3.72-22.86-7.44-45.72-11.16-68.58
				c-7.54-46.36-15.09-92.73-22.63-139.09c-0.86-5.3-1.72-10.6-2.59-15.9c-1.74-8.81-10.68-15.28-19.86-14.38
				c-9.18,0.89-15.26,8.83-13.52,17.63c21.34,87.09,46.83,174.22,63.15,261.92c0.22,1.18,0.47,2.42,1.3,3.42
				C679.64,961.31,681.11,961.61,682.19,960.47z"/>
			</g>
			<path class="st1" d="M653.95,716.67H492.1c-14.93,0-27.15-12.22-27.15-27.15v0c0-14.93,12.22-27.15,27.15-27.15h161.85
			c14.93,0,27.15,12.22,27.15,27.15v0C681.11,704.46,668.89,716.67,653.95,716.67z"/>
		</g>
		<g id="Lamp">
			<path class="st2" d="M1046.85,525.61L1104.36,396c0.91-2.05,3.33-2.98,5.38-2.07l1,0.44c2.05,0.91,2.98,3.33,2.07,5.38
			l-57.52,129.61c-0.91,2.05-3.33,2.98-5.38,2.07l-1-0.44C1046.87,530.08,1045.94,527.66,1046.85,525.61z"/>
			<path class="st2" d="M1102.42,392.2l-44.86-134.51c-0.71-2.13,0.45-4.45,2.58-5.16l1.04-0.35c2.13-0.71,4.45,0.45,5.16,2.58
			l44.86,134.51c0.71,2.13-0.45,4.45-2.58,5.16l-1.04,0.35C1105.45,395.48,1103.13,394.32,1102.42,392.2z"/>
			<circle class="st1" cx="1108.88" cy="396.93" r="11.36"/>
			<g>
				<path class="st0" d="M1046.4,517.67c-20.98,0-37.98,15.88-37.98,35.48h75.96C1084.38,533.55,1067.37,517.67,1046.4,517.67z"/>
			</g>
			<g>
				<path class="st3" d="M1068.94,242.27c-11.34-11.34-47.7,6.63-81.21,40.14l41.07,41.07
				C1062.31,289.97,1080.28,253.61,1068.94,242.27z"/>
			</g>
			<g>
				<g>
					<path class="st0" d="M984.35,330.73c-0.49,0-0.99-0.19-1.35-0.58c-0.72-0.75-0.69-1.93,0.06-2.65l17.41-16.64
					c0.75-0.72,1.94-0.69,2.65,0.06c0.72,0.75,0.69,1.93-0.06,2.65l-17.41,16.64C985.29,330.56,984.82,330.73,984.35,330.73z"/>
				</g>
				<g>
					<path class="st0" d="M1004,348.1c-0.31,0-0.63-0.08-0.92-0.24c-0.9-0.51-1.22-1.65-0.71-2.55l11.79-21
					c0.5-0.9,1.64-1.22,2.55-0.72c0.9,0.51,1.22,1.65,0.71,2.55l-11.79,21C1005.29,347.76,1004.65,348.1,1004,348.1z"/>
				</g>
				<g>
					<path class="st0" d="M965.19,311.34c-0.75,0-1.46-0.45-1.75-1.19c-0.38-0.96,0.1-2.05,1.06-2.43l22.45-8.73
					c0.97-0.37,2.05,0.1,2.43,1.07s-0.1,2.05-1.06,2.43l-22.45,8.73C965.65,311.3,965.42,311.34,965.19,311.34z"/>
				</g>
			</g>
		</g>
		<g id="Coffee">
			<g>
				<path class="st2" d="M1245.5,759.87c-0.02,0-63.25,0-63.25,0c0.81,5.39,1.6,10.86,2.43,16.33h57.24
				C1242.69,767.11,1243.82,759.87,1245.5,759.87z"/>
				<path class="st3" d="M1194.69,822.99c1.18,1.19,2.78,1.22,4.26,1.18c8.54-0.19,17.1,0.35,25.65,0.3
				c8.07-0.04,14.75,0.61,15.59-12.8c0.18-2.83,0.52-21.37,1.72-35.48h-57.24c2.16,14.39,4.54,28.89,8.12,42.56
				C1193.21,820.34,1193.69,821.98,1194.69,822.99z"/>
			</g>
			<circle class="st4" cx="1213.87" cy="797.35" r="9.99"/>
			<path class="st0" d="M1204.99,752.28c0,0-20.98-14.08-6.04-22.98s12.71-21.21,6.04-23.21c-6.67-1.99,13.95-10.15,13.95-10.15
			s-13.95,4.73-5.79,10.15c8.15,5.42,28.91,18.76,13.34,23.21c-15.56,4.45,15.72,11.81,5.63,19.99
			C1222.04,757.47,1204.99,752.28,1204.99,752.28z"/>
		</g>
	</g>
	<g id="Characters">
		<g id="Man">
			<g id="Head">
				<path id="Neck" class="st5" d="M674.39,390.16l-16.78,50.66l-44.47,4.55c0,0,33.85-28.81,38.35-61.45
				S674.39,390.16,674.39,390.16z"/>
				<path id="Face" class="st6" d="M745.87,314.72c0,0,5.6,14-12.66,47.28s-40.43,59.9-50.57,54.83
				c-28.06-14.02-32.75-37.82-38.13-58.63c-6.6-25.51,33.13-72.52,33.13-72.52l27.14-6.31L745.87,314.72z"/>
				<path id="Hair" class="st2" d="M780.6,314.03c0.29-0.5,0.57-1.02,0.84-1.55c5.54-10.88,7.64-25.07,5.29-37.07
				c-3.98-20.34-24.41-22.5-41.57-18.82c-7.84,1.68-15.18,6.81-23.48,4.15c-6.19-1.98-9.32-7.79-14.03-11.74
				c-5.4-4.53-12.16-7.19-19.21-7.93c-14.61-1.53-28.05,6.03-36.06,17.98c-3.29,4.92-5.4,10.58-5.72,16.49
				c-1.46-2.05-3.54-2.72-6.03-2.24c-20.39,3.97-19.22,33.57-18.32,49.1c0.75,12.97,0.02,29.1,7.92,40.21
				c3.15,4.43,11.41,11.48,16.43,6.56c4.48-4.39,0.98-17.84,2.18-23.6c1.68-8.09,0.94-46.87,42.2-43.95
				c16.4,1.16,27.96,29.21,43.38,34.09C750.11,340.68,771.86,329.05,780.6,314.03z"/>
				<path id="Ear" class="st6" d="M652.55,334.85c0,0-11.44-12.7-10.03,6.83c1.42,19.52,11.68,23.46,11.68,23.46L652.55,334.85z"/>
			</g>
			<g id="Leg_2_">
				<path id="Skin_1_" class="st6" d="M869.5,807.42l26.47,65.42l-19.64,11.66l-23.8-70C852.53,814.5,862.39,806.49,869.5,807.42z"/>
				<path id="Shoe_1_" class="st3" d="M986.72,882.17c0,0-14.66,8.92-44.32,17.45c-29.65,8.54-63.01,16.6-69.97,13.1
				c-6.96-3.5-18.19-43.08-8.16-45.14c10.03-2.05,16.72,12.59,31.91-4.81c13.01-14.91,29.14,4.87,56.59,5.41
				C980.22,868.72,991.33,868.91,986.72,882.17z"/>
				<path id="Leg_3_" class="st2" d="M669.97,619.61c13.36,1.51,46.76,17.12,59.07,21.74c26.42,9.92,66.07,67.02,82.15,87.23
				c17.73,22.28,34.59,30.08,50.53,53.31c11.15,16.11,33.04,20.27,44.33,34.96c8.6,11.19,4.65,11.31-8.54,18.47
				c-18.09,9.82-71.51,61.65-79.74,29.98c-3.07-11.83-24.98-36.93-32.96-46.8c-18.73-23.17-13.38-58.68-29.44-83.23
				c-7.82-11.95-13.44-25.99-27.07-33.41c-11.44-6.23-25.97-6.31-39.61-6.17c-18.8,0.18-29.36-32.49-48.17-32.31
				c-24.79,0.24-50.44,24.3-70.32,11.86c-33.42-20.93,11.84-22.73,30.54-23.46C637.76,650.35,633.18,615.47,669.97,619.61z"/>
			</g>
			<g id="Leg">
				<path id="Skin" class="st6" d="M794.78,849.28l31.55,63.08l-20,12.72l-29.01-67.77C777.32,857.31,787.24,848.79,794.78,849.28z" />
				<path id="Shoe" class="st7" d="M917.3,932.17c0,0-16.1,7.59-47.91,13.56c-31.81,5.97-67.48,11.17-74.52,7.14
				c-7.04-4.03-15.76-44.04-5.06-45.24c10.69-1.2,16.59,13.81,33.89-2.11c14.83-13.64,30.23,7.22,59.03,10.03
				C911.52,918.35,923.18,919.46,917.3,932.17z"/>
				<path id="Leg_1_" class="st8" d="M640.52,612.99c13.36,1.91,25.69,7.47,38,13.34c26.42,12.6,48.51,47.07,64.59,72.73
				c17.73,28.31,34.59,57.25,50.53,86.75c6.05,11.2,8.53,23.74,14.15,35.02c9.3,18.66,57.37,44.17,26.08,65.28
				c-20.08,13.54-51.82,7.02-74.46,6.94c-1.18,0-2.45-0.04-3.37-0.77c-1.09-0.87-1.32-2.41-1.47-3.8
				c-3.14-29.47-6.14-54.12-19.49-80.81c-18.73-29.43-31.73-49.89-47.79-81.06c-7.82-15.18-7.29-27.66-20.91-37.08
				c-11.44-7.92-23.24-5.55-36.87-5.38c-18.8,0.23-34.94-0.23-53.74,0c-24.79,0.3-40.98-0.5-54.38-22.08
				c-25.67-41.35-7.41-40.6,11.28-41.52C569.68,618.71,603.73,607.72,640.52,612.99z"/>
			</g>
			<path id="Arm" class="st6" d="M670.61,470.1c0,0,15.68,59.94,21.74,61.27c5.08,1.11,11.29,0.02,16.41-0.21
			c10.51-0.48,21.02-1.16,31.51-1.87c18.17-1.24,36.88-1.68,54.88-4.63c11-1.8,31.17-4.49,39.5-12.56
			c11.31-10.94,31.47,14.2,37.18,20.89c0.83,0.97,1.62,2.51,0.68,3.36c-0.43,0.39-1.06,0.43-1.64,0.4
			c-4.08-0.17-7.68-2.57-11.04-4.87c3.05,3.45,5.58,7.36,7.47,11.56c-3.72-1.42-6.94-3.91-10.61-5.44
			c-14.77-6.14-26.74,15.35-43.29,7.7c-11.1-5.13-23.62-1.62-35.16-0.34c-10.39,1.15-20.79,2.22-31.2,3.23
			c-19.46,1.9-39.81,5.2-59.41,4.44c-1.2-0.05-2.56,0.09-3.73-0.3c-6.16-2.08-17.9-28.48-26.62-51.5
			c-5.5-14.52-12.63-30.14-7.52-52.87C654.46,427.52,676.35,436.93,670.61,470.1z"/>
			<g id="Body">
				<path class="st9" d="M644.05,512.22c2.86-11.55,6.53-22.66,10.74-32.95c6.6-16.13,18.43-38.07,8.33-55.33
				c-1.42-2.43-2.98-4.88-5.35-6.7c-26.38-20.26-67.31,18.38-84.37,38.61c-21.5,25.49-22.26,36.37-31.37,66.33
				c-10.12,33.27-19.2,68.11-34.53,99.78c-1.65,3.42-3.01,8.09,0.51,10.38c1.6,1.04,3.71,1.16,5.68,1.16
				c13.69-0.02,26.81-3.78,39.7-7.4c20.42-5.73,19.52-7.98,40.89-4.25c8.39,1.46,16.36-1.04,24.86-1.11
				c2.1-0.02,10.44-0.99,12.22-1.82c13.9-6.47-3.05-10.26-3.74-11.96C614.83,575.31,635.62,546.27,644.05,512.22z"/>
				<path class="st10" d="M676.5,489.81c0,0,2.51-72.53-30-67.2c-32.51,5.33-19.04,87.08-19.04,87.08l53.11-9.45L676.5,489.81z"/>
			</g>
		</g>
	</g>
	<g id="Background_1_">
		<g id="Table_1_">
			<g>
				<path class="st0" d="M741.67,961.23c-4.89-6.86-0.76-57.38,0.31-65.52c4.28-32.6,8.56-65.21,12.84-97.81
				c8.68-66.13,17.36-132.26,26.04-198.39c0.99-7.56,1.98-15.12,2.98-22.68c1.96-12.59,11.11-22.64,20.34-22.33
				c9.23,0.31,15.17,10.86,13.21,23.45c-23.53,124.96-51.24,250.41-69.73,375.72c-0.25,1.69-0.53,3.46-1.39,4.96
				C744.23,962.15,742.74,962.72,741.67,961.23z"/>
				<g>
					<path class="st0" d="M1070.39,961.23c4.89-6.86,0.76-57.38-0.31-65.52c-4.28-32.6-8.56-65.21-12.84-97.81
					c-8.68-66.13-17.36-132.26-26.04-198.39c-0.99-7.56-1.98-15.12-2.98-22.68c-1.96-12.59-11.11-22.64-20.34-22.33
					c-9.23,0.31-15.17,10.86-13.21,23.45c23.53,124.96,51.24,250.41,69.73,375.72c0.25,1.69,0.53,3.46,1.39,4.96
					C1067.84,962.15,1069.33,962.72,1070.39,961.23z"/>
				</g>
			</g>
			<path class="st1" d="M1213.16,573.86H669.11c-5.7,0-10.36-4.66-10.36-10.36v0c0-5.7,4.66-10.36,10.36-10.36h544.05
			c5.7,0,10.36,4.66,10.36,10.36v0C1223.52,569.2,1218.86,573.86,1213.16,573.86z"/>
		</g>
	</g>
	<g id="Nature">
		<g id="Plant">
			<g>
				<path class="st7" d="M1120.3,518.5c3.62-2.23,5.35-7.12,3.93-11.13c-2.32-6.56-8.31-4.35-12.58-7.79
				c-5.02-4.05,1.05-10.43,0.72-15.22c-0.37-5.27-5.11-10.35-6.53-15.44c-3.27-11.7,10.02-2.97,13.82-4.33
				c1.59-0.57,2.63-2.17,2.99-3.81c0.93-4.2-0.84-7.6,1.46-11.58c2.22-3.84,5.51-5.58,4.56-10.79c-0.54-2.96-2.36-5.66-2.31-8.66
				c0.01-0.86,0.26-1.83,1.01-2.25c0.57-0.32,1.28-0.23,1.9-0.02c2.05,0.72,3.39,2.63,5.04,4.04s4.3,2.29,5.88,0.8
				c1.05-0.99,1.16-2.59,1.37-4.02c0.39-2.58,2.2-4.37,4.44-2.88c2.45,1.62,1.51,8.02,1.14,10.32c-0.59,3.64-1.47,7.42-0.39,10.94
				c1.79,5.83,6.67-0.7,8.8-2.63c1.74-1.58,4.66-2.53,6.34-0.88c3.33,3.29-2.03,7.68-2.73,10.8c-0.34,1.48,0.1,3.26,1.42,4.02
				c3.86,2.24,7.12-1.75,7.7,4.2c0.4,4.07-3.29,7.96-1,12.03c2,3.56,8.65,5.07,6.02,10.07c-1.62,3.07-8.57,2.93-8.2,7.29
				c0.24,2.84,4.52,4.14,4.52,6.99c0,2.15-2.5,3.42-4.65,3.53c-2.15,0.11-4.41-0.39-6.39,0.45c-2.25,0.95-3.55,3.71-2.85,6.05
				c0.6,2.03,2.5,3.89,1.9,5.92c-0.72,2.45-4.11,2.54-6.63,2.15C1140.72,515.05,1129.69,513.98,1120.3,518.5z"/>
				<g>
					<path class="st4" d="M1139.75,518.7c-1.04,0-1.87-0.84-1.87-1.87v-45.95c0-1.03,0.84-1.87,1.87-1.87s1.87,0.84,1.87,1.87v45.95
					C1141.62,517.86,1140.79,518.7,1139.75,518.7z"/>
				</g>
				<g>
					<path class="st4" d="M1139.75,500.81c-0.42,0-0.83-0.14-1.18-0.42c-0.81-0.65-0.93-1.83-0.28-2.64l12.05-14.86
					c0.66-0.81,1.84-0.92,2.64-0.28c0.8,0.65,0.93,1.83,0.27,2.64l-12.05,14.86C1140.83,500.58,1140.3,500.81,1139.75,500.81z"/>
				</g>
				<g>
					<path class="st4" d="M1139.75,488.27c-0.43,0-0.86-0.14-1.21-0.44l-14.36-12.09c-0.79-0.67-0.89-1.85-0.23-2.64
					c0.67-0.79,1.85-0.89,2.64-0.23l14.36,12.09c0.79,0.67,0.89,1.85,0.23,2.64C1140.81,488.04,1140.28,488.27,1139.75,488.27z"/>
				</g>
			</g>
			<g>
				<path class="st9" d="M1118.29,512.06c1.89,12.56,3.59,25.7,6.77,37.81c0.26,1.01,0.58,2.07,1.21,2.71
				c0.76,0.77,1.79,0.78,2.74,0.76c5.48-0.13,10.98,0.23,16.47,0.2c5.18-0.03,9.47,0.39,10.01-8.22c0.19-2.98,0.66-33.26,3.41-33.26
				C1158.89,512.06,1118.29,512.06,1118.29,512.06z"/>
				<path class="st10" d="M1155.19,519.57H1122c-4.13,0-7.51-3.38-7.51-7.51l0,0c0-4.13,3.38-7.51,7.51-7.51h33.19
				c4.13,0,7.51,3.38,7.51,7.51l0,0C1162.7,516.19,1159.32,519.57,1155.19,519.57z"/>
			</g>
		</g>
	</g>
	<g id="UI">
		<g id="Laptop">
			<path class="st2" d="M921.76,552.01H753.99c-2.24,0-4.08-1.83-4.08-4.08l0,0c0-2.24,1.83-4.08,4.08-4.08h167.77
			c2.24,0,4.08,1.83,4.08,4.08l0,0C925.83,550.18,924,552.01,921.76,552.01z"/>
			<path class="st2" d="M917.57,546.27l83.89-145.29c1.12-1.94,3.63-2.61,5.57-1.49h0c1.94,1.12,2.61,3.63,1.49,5.57l-83.89,145.29
			c-1.12,1.94-3.63,2.61-5.57,1.49l0,0C917.12,550.72,916.45,548.21,917.57,546.27z"/>
		</g>
		<g id="Server">
			<g>
				<path class="st1" d="M1294.36,865.3h-168.62c-9.45,0-17.17-7.73-17.17-17.17v-6.47c0-9.45,7.73-17.17,17.17-17.17h168.62
				c9.45,0,17.17,7.73,17.17,17.17v6.47C1311.53,857.58,1303.8,865.3,1294.36,865.3z"/>
				<path class="st1" d="M1318.47,909.68h-168.62c-9.45,0-17.17-7.73-17.17-17.17v-6.47c0-9.45,7.73-17.17,17.17-17.17h168.62
				c9.45,0,17.17,7.73,17.17,17.17v6.47C1335.65,901.95,1327.92,909.68,1318.47,909.68z"/>
				<path class="st1" d="M1294.36,954.49h-168.62c-9.45,0-17.17-7.73-17.17-17.17v-6.47c0-9.45,7.73-17.17,17.17-17.17h168.62
				c9.45,0,17.17,7.73,17.17,17.17v6.47C1311.53,946.76,1303.8,954.49,1294.36,954.49z"/>
			</g>
			<circle class="st4" cx="1125.11" cy="844.58" r="4.68"/>
			<circle class="st4" cx="1293.73" cy="844.58" r="4.68"/>
			<circle class="st4" cx="1148.53" cy="887.36" r="4.68"/>
			<circle class="st4" cx="1317.15" cy="887.36" r="4.68"/>
			<circle class="st4" cx="1126.05" cy="933.84" r="4.68"/>
			<circle class="st4" cx="1294.67" cy="933.84" r="4.68"/>
		</g>
	</g>
</svg>
